<?xml version="1.0" encoding="utf-8"?>
<!-- Generator: Adobe Illustrator 19.2.0, SVG Export Plug-In . SVG Version: 6.00 Build 0)  -->
<svg version="1.1"
	 id="图层_1" inkscape:version="0.91 r13725" sodipodi:docname="manager.svg" xmlns:cc="http://creativecommons.org/ns#" xmlns:dc="http://purl.org/dc/elements/1.1/" xmlns:inkscape="http://www.inkscape.org/namespaces/inkscape" xmlns:rdf="http://www.w3.org/1999/02/22-rdf-syntax-ns#" xmlns:sodipodi="http://sodipodi.sourceforge.net/DTD/sodipodi-0.dtd" xmlns:svg="http://www.w3.org/2000/svg"
	 xmlns="http://www.w3.org/2000/svg" xmlns:xlink="http://www.w3.org/1999/xlink" x="0px" y="0px" viewBox="0 0 48 48"
	 style="enable-background:new 0 0 48 48;" xml:space="preserve">
<style type="text/css">
	.st0{fill:#E83828;}
	.st1{fill:#C30D23;}
	.st2{fill:#E3CC92;}
	.st3{fill:#8FC31F;}
	.st4{fill:#2EA7E0;}
	.st5{fill:#E44537;}
	.st6{fill:#FF8E12;}
	.st7{display:none;fill:#E44537;}
</style>
<sodipodi:namedview  bordercolor="#666666" borderopacity="1" gridtolerance="10" guidetolerance="10" id="namedview7045" inkscape:current-layer="图层_1" inkscape:cx="24" inkscape:cy="24" inkscape:pageopacity="0" inkscape:pageshadow="2" inkscape:window-height="1004" inkscape:window-maximized="1" inkscape:window-width="1876" inkscape:window-x="0" inkscape:window-y="0" inkscape:zoom="16.770833" objecttolerance="10" pagecolor="#ffffff" showgrid="false">
	</sodipodi:namedview>
<g id="g6959">
	<g id="g6963">
		<g id="g6965">
			<path id="path6967" class="st0" d="M20.3,21"/>
			<path id="path6969" class="st1" d="M20.3,21"/>
			<path id="path6971" class="st1" d="M20.3,31"/>
			<path id="path6973" class="st0" d="M20.3,11"/>
			<path id="path6975" class="st1" d="M20.3,11"/>
			<polygon id="polygon6977" class="st0" points="27.9,40 27.9,40 27.9,40 			"/>
			<g id="g6979">
				<path id="path6981" class="st2" d="M42.4,11.4c0-1.6,0.9-3,2.2-4c-1-0.7-2.3-1.2-3.7-1.2H17.6c-3.1,0-5.7,2.1-5.7,4.8v0.6
					c0,2.6,2.5,4.8,5.7,4.8h23.3c1.4,0,2.6-0.4,3.6-1.1C43.3,14.3,42.4,13,42.4,11.4z"/>
			</g>
			<g id="g6983">
				<path id="path6985" class="st2" d="M42.5,11.3H11.9v0.3c0,2.6,2.5,4.8,5.7,4.8h23.3c1.4,0,2.6-0.4,3.6-1.1
					C43.3,14.3,42.4,13,42.5,11.3C42.4,11.4,42.5,11.4,42.5,11.3z"/>
			</g>
			<g id="g6987">
				<path id="path6989" class="st2" d="M42.4,36.8c0-1.6,0.9-3,2.2-4c-1-0.7-2.3-1.2-3.7-1.2H17.6c-3.1,0-5.7,2.1-5.7,4.8V37
					c0,2.6,2.5,4.8,5.7,4.8h23.3c1.4,0,2.6-0.4,3.6-1.1C43.3,39.7,42.4,38.3,42.4,36.8z"/>
			</g>
			<g id="g6991">
				<path id="path6993" class="st2" d="M42.5,36.7H11.9V37c0,2.6,2.5,4.8,5.7,4.8h23.3c1.4,0,2.6-0.4,3.6-1.1
					C43.3,39.7,42.4,38.3,42.5,36.7C42.4,36.7,42.5,36.7,42.5,36.7z"/>
			</g>
			<path id="path6995_1_" class="st3" d="M44.7,7.5V5.1L40,5h-2.4H9.5c-3.7,0-6.6,2.7-6.6,6.1v0.2h25.6c0,0,0,0,0,0l2.1,0
				c0-1.9,1.7-3.7,3.7-3.7l3.2-0.1"/>
			<path id="path6997_2_" class="st4" d="M37.6,40.5h-6.8c-2.1,0-3.7-1.8-3.7-3.8v0c0,0,2.2,0,2.2,0c0-1.9,1.7-3.8,3.7-3.8l4.7,0
				l7.1,0l0,0v-2.5l-4.7,0h-2.4H9.5c-3.7,0-6.6,2.8-6.6,6.2v0.1v0.1c0,3.4,3,6.2,6.6,6.2h28.1H40l4.7,0v-2.5"/>
			<path id="path6999_1_" class="st3" d="M37.6,15.1l-3.2,0c-2.1,0-3.7-1.9-3.7-3.8l-27.8,0v0.1c0,3.5,3,6.2,6.6,6.2h28.1H40l4.6,0
				v-2.5"/>
			<path id="path7001" class="st5" d="M16.9,11.3h-4.7c0,3.6,2.1,6.3,3.7,6.3c0.2,0,5.8,0,5.8,0C19,17.7,16.9,14.8,16.9,11.3z"/>
			<path id="path7003" class="st5" d="M21.8,5c0,0-4.5,0-4.7,0c-2.7,0-4.9,2.8-4.9,6.3h4.7C16.9,7.8,19,5,21.8,5z"/>
			<g id="g7005">
				<path id="path7007" class="st2" d="M42.4,24.1c0-1.6,0.9-3,2.2-4c-1-0.7-2.3-1.2-3.7-1.2H17.6c-3.1,0-5.7,2.1-5.7,4.8v0.6
					c0,2.6,2.5,4.8,5.7,4.8h23.3c1.4,0,2.6-0.4,3.6-1.1C43.3,27,42.4,25.6,42.4,24.1z"/>
			</g>
			<g id="g7009">
				<path id="path7011" class="st2" d="M42.5,24H11.9v0.3c0,2.6,2.5,4.8,5.7,4.8h23.3c1.4,0,2.6-0.4,3.6-1.1
					C43.3,27,42.4,25.6,42.5,24C42.4,24.1,42.5,24,42.5,24z"/>
			</g>
			<path id="path7013_1_" class="st6" d="M44.6,20.2v-2.5l-4.6,0v0h-2.4H9.5c-3.7,0-6.6,2.7-6.6,6.1V24h25.6c0,0,0,0,0,0l2.1,0
				c0-1.9,1.7-3.7,3.7-3.7l3.2-0.1"/>
			<path id="path7015_1_" class="st6" d="M37.6,27.8h-3.2c-2.1,0-3.7-1.9-3.7-3.8H2.9v0.1c0,3.5,3,6.2,6.6,6.2h28.1H40l4.7,0v-2.5"
				/>
			<path id="path7017_1_" class="st4" d="M37.6,40.5l-3.2,0c-3.6,0-5.2-1.9-5.2-3.8l-26.3,0v0.1c0,3.5,3,6.2,6.6,6.2h28.1H40l4.7,0
				v-2.5"/>
			<path id="path7019" class="st7" d="M31.3,38.2c0,1-0.3,1.9-0.8,2.5c0.8-0.2,1.9-0.9,2.5-1.6c0,0,0.7,0.7,0.9,1.4
				c0.4-0.7,0.6-1.3,0.6-2.3c0-3.1-1.7-3.3-1.7-3.3h-3.7C30.3,35,31.3,36.2,31.3,38.2z"/>
		</g>
	</g>
</g>
</svg>
